<?xml version="1.0" encoding="utf-8"?>
<svg version="1.1" xmlns:xlink="http://www.w3.org/1999/xlink" width="80px" height="30px" xmlns="http://www.w3.org/2000/svg">
  <g transform="matrix(1 0 0 1 -474 -1837 )">
    <path d="M 474.5 1840  A 2.5 2.5 0 0 1 477 1837.5 L 551 1837.5  A 2.5 2.5 0 0 1 553.5 1840 L 553.5 1864  A 2.5 2.5 0 0 1 551 1866.5 L 477 1866.5  A 2.5 2.5 0 0 1 474.5 1864 L 474.5 1840  Z " fill-rule="nonzero" fill="#f9f9f9" stroke="none" />
    <path d="M 474.5 1840  A 2.5 2.5 0 0 1 477 1837.5 L 551 1837.5  A 2.5 2.5 0 0 1 553.5 1840 L 553.5 1864  A 2.5 2.5 0 0 1 551 1866.5 L 477 1866.5  A 2.5 2.5 0 0 1 474.5 1864 L 474.5 1840  Z " stroke-width="1" stroke="#e4e4e4" fill="none" />
  </g>
</svg>