<?xml version="1.0" encoding="utf-8"?>
<svg version="1.1" xmlns:xlink="http://www.w3.org/1999/xlink" width="104px" height="104px" xmlns="http://www.w3.org/2000/svg">
  <g transform="matrix(1 0 0 1 -229 -1098 )">
    <path d="M 230 1102  A 3 3 0 0 1 233 1099 L 329 1099  A 3 3 0 0 1 332 1102 L 332 1198  A 3 3 0 0 1 329 1201 L 233 1201  A 3 3 0 0 1 230 1198 L 230 1102  Z " fill-rule="nonzero" fill="#000000" stroke="none" fill-opacity="0.0196078431372549" />
    <path d="M 229.5 1102  A 3.5 3.5 0 0 1 233 1098.5 L 329 1098.5  A 3.5 3.5 0 0 1 332.5 1102 L 332.5 1198  A 3.5 3.5 0 0 1 329 1201.5 L 233 1201.5  A 3.5 3.5 0 0 1 229.5 1198 L 229.5 1102  Z " stroke-width="1" stroke-dasharray="9,4" stroke="#d9d9d9" fill="none" stroke-dashoffset="0.5" />
  </g>
</svg>