<?xml version="1.0" encoding="utf-8"?>
<svg version="1.1" xmlns:xlink="http://www.w3.org/1999/xlink" width="99px" height="104px" xmlns="http://www.w3.org/2000/svg">
  <g transform="matrix(1 0 0 1 -349 -1098 )">
    <path d="M 349 1098  L 448 1098  L 448 1202  L 349 1202  L 349 1098  " fill-rule="nonzero" fill="#cccccc" stroke="none" />
    <path d="M 356 1105  L 441 1105  L 441 1195  L 356 1195  L 356 1105  " fill-rule="nonzero" fill="#ffffff" stroke="none" />
    <path d="M 407.905 1128.45  C 403.747 1128.45  400.48 1125.183  400.48 1121.025  C 400.48 1116.867  403.747 1113.6  407.905 1113.6  C 412.063 1113.6  415.33 1116.867  415.33 1121.025  C 415.33 1125.183  412.063 1128.45  407.905 1128.45  " fill-rule="nonzero" fill="#cccccc" stroke="none" />
    <path d="M 359 1193  L 359 1146.25  L 379 1125  L 407 1142  L 423 1137.75  L 439 1142  L 439 1193  L 359 1193  " fill-rule="nonzero" fill="#169bd5" stroke="none" />
  </g>
</svg>