<?xml version="1.0" encoding="utf-8"?>
<svg version="1.1" xmlns:xlink="http://www.w3.org/1999/xlink" width="16px" height="15px" xmlns="http://www.w3.org/2000/svg">
  <g transform="matrix(1 0 0 1 -1392 -371 )">
    <path d="M 15.703125 0.494791666666667  C 15.9010416666667 0.824652777777776  16 1.21527777777777  16 1.66666666666667  C 16 2.11805555555555  15.9010416666667 2.50868055555555  15.703125 2.83854166666667  L 8.703125 14.5052083333333  C 8.50520833333333 14.8350694444444  8.27083333333333 15  8 15  C 7.72916666666667 15  7.49479166666667 14.8350694444444  7.296875 14.5052083333333  L 0.296875 2.83854166666667  C 0.0989583333333333 2.50868055555555  0 2.11805555555555  0 1.66666666666667  C 0 1.21527777777777  0.0989583333333333 0.824652777777776  0.296875 0.494791666666667  C 0.494791666666667 0.164930555555554  0.729166666666667 0  1 0  L 15 0  C 15.2708333333333 0  15.5052083333333 0.164930555555554  15.703125 0.494791666666667  Z " fill-rule="nonzero" fill="#d9001b" stroke="none" transform="matrix(1 0 0 1 1392 371 )" />
  </g>
</svg>