<?xml version="1.0" encoding="utf-8"?>
<svg version="1.1" xmlns:xlink="http://www.w3.org/1999/xlink" width="62px" height="64px" xmlns="http://www.w3.org/2000/svg">
  <g transform="matrix(1 0 0 1 -189 -727 )">
    <path d="M 220 727  C 237.36 727  251 741.08  251 759  C 251 776.92  237.36 791  220 791  C 202.64 791  189 776.92  189 759  C 189 741.08  202.64 727  220 727  Z " fill-rule="nonzero" fill="#e9e9e9" stroke="none" />
    <path d="M 220 727.5  C 237.08 727.5  250.5 741.36  250.5 759  C 250.5 776.64  237.08 790.5  220 790.5  C 202.92 790.5  189.5 776.64  189.5 759  C 189.5 741.36  202.92 727.5  220 727.5  Z " stroke-width="1" stroke="#ffffff" fill="none" />
  </g>
</svg>