<?xml version="1.0" encoding="utf-8"?>
<svg version="1.1" xmlns:xlink="http://www.w3.org/1999/xlink" width="27px" height="28px" xmlns="http://www.w3.org/2000/svg">
  <defs>
    <filter x="394px" y="1185px" width="27px" height="28px" filterUnits="userSpaceOnUse" id="filter211">
      <feOffset dx="0" dy="1" in="SourceAlpha" result="shadowOffsetInner" />
      <feGaussianBlur stdDeviation="1" in="shadowOffsetInner" result="shadowGaussian" />
      <feComposite in2="shadowGaussian" operator="atop" in="SourceAlpha" result="shadowComposite" />
      <feColorMatrix type="matrix" values="0 0 0 0 0  0 0 0 0 0  0 0 0 0 0  0 0 0 0.349019607843137 0  " in="shadowComposite" />
    </filter>
    <g id="widget212">
      <path d="M 407.5 1186  C 413.94 1186  419 1191.28  419 1198  C 419 1204.72  413.94 1210  407.5 1210  C 401.06 1210  396 1204.72  396 1198  C 396 1191.28  401.06 1186  407.5 1186  Z " fill-rule="nonzero" fill="#ffffff" stroke="none" />
      <path d="M 407.5 1186.5  C 413.66 1186.5  418.5 1191.56  418.5 1198  C 418.5 1204.44  413.66 1209.5  407.5 1209.5  C 401.34 1209.5  396.5 1204.44  396.5 1198  C 396.5 1191.56  401.34 1186.5  407.5 1186.5  Z " stroke-width="1" stroke="#d9d9d9" fill="none" />
    </g>
  </defs>
  <g transform="matrix(1 0 0 1 -394 -1185 )">
    <use xlink:href="#widget212" filter="url(#filter211)" />
    <use xlink:href="#widget212" />
  </g>
</svg>