<?xml version="1.0" encoding="utf-8"?>
<svg version="1.1" xmlns:xlink="http://www.w3.org/1999/xlink" width="38px" height="39px" xmlns="http://www.w3.org/2000/svg">
  <g transform="matrix(1 0 0 1 -201 -739 )">
    <path d="M 220 739  C 230.64 739  239 747.58  239 758.5  C 239 769.42  230.64 778  220 778  C 209.36 778  201 769.42  201 758.5  C 201 747.58  209.36 739  220 739  Z " fill-rule="nonzero" fill="#ffffff" stroke="none" />
    <path d="M 220 739.5  C 230.36 739.5  238.5 747.86  238.5 758.5  C 238.5 769.14  230.36 777.5  220 777.5  C 209.64 777.5  201.5 769.14  201.5 758.5  C 201.5 747.86  209.64 739.5  220 739.5  Z " stroke-width="1" stroke="#ffffff" fill="none" />
  </g>
</svg>