<?xml version="1.0" encoding="utf-8"?>
<svg version="1.1" xmlns:xlink="http://www.w3.org/1999/xlink" width="80px" height="67px" xmlns="http://www.w3.org/2000/svg">
  <g transform="matrix(1 0 0 1 -182 -112 )">
    <path d="M 182 112  L 262 112  L 262 179  L 182 179  L 182 112  " fill-rule="nonzero" fill="#cccccc" stroke="none" />
    <path d="M 187 117  L 257 117  L 257 174  L 187 174  L 187 117  " fill-rule="nonzero" fill="#ffffff" stroke="none" />
    <path d="M 228.625 132.1  C 225.811 132.1  223.6 129.889  223.6 127.075  C 223.6 124.261  225.811 122.05  228.625 122.05  C 231.439 122.05  233.65 124.261  233.65 127.075  C 233.65 129.889  231.439 132.1  228.625 132.1  " fill-rule="nonzero" fill="#cccccc" stroke="none" />
    <path d="M 189 173  L 189 143.3  L 205.75 129.8  L 229.2 145.865  L 242.6 137.9  L 256 145.865  L 256 173  L 189 173  " fill-rule="nonzero" fill="#169bd5" stroke="none" />
  </g>
</svg>