<?xml version="1.0" encoding="utf-8"?>
<svg version="1.1" xmlns:xlink="http://www.w3.org/1999/xlink" width="27px" height="28px" xmlns="http://www.w3.org/2000/svg">
  <defs>
    <filter x="394px" y="1377px" width="27px" height="28px" filterUnits="userSpaceOnUse" id="filter21">
      <feOffset dx="0" dy="1" in="SourceAlpha" result="shadowOffsetInner" />
      <feGaussianBlur stdDeviation="1" in="shadowOffsetInner" result="shadowGaussian" />
      <feComposite in2="shadowGaussian" operator="atop" in="SourceAlpha" result="shadowComposite" />
      <feColorMatrix type="matrix" values="0 0 0 0 0  0 0 0 0 0  0 0 0 0 0  0 0 0 0.349019607843137 0  " in="shadowComposite" />
    </filter>
    <g id="widget22">
      <path d="M 407.5 1378  C 413.94 1378  419 1383.28  419 1390  C 419 1396.72  413.94 1402  407.5 1402  C 401.06 1402  396 1396.72  396 1390  C 396 1383.28  401.06 1378  407.5 1378  Z " fill-rule="nonzero" fill="#ffffff" stroke="none" />
      <path d="M 407.5 1378.5  C 413.66 1378.5  418.5 1383.56  418.5 1390  C 418.5 1396.44  413.66 1401.5  407.5 1401.5  C 401.34 1401.5  396.5 1396.44  396.5 1390  C 396.5 1383.56  401.34 1378.5  407.5 1378.5  Z " stroke-width="1" stroke="#d9d9d9" fill="none" />
    </g>
  </defs>
  <g transform="matrix(1 0 0 1 -394 -1377 )">
    <use xlink:href="#widget22" filter="url(#filter21)" />
    <use xlink:href="#widget22" />
  </g>
</svg>