<?xml version="1.0" encoding="utf-8"?>
<svg version="1.1" xmlns:xlink="http://www.w3.org/1999/xlink" width="38px" height="39px" xmlns="http://www.w3.org/2000/svg">
  <g transform="matrix(1 0 0 1 -201 -931 )">
    <path d="M 220 931  C 230.64 931  239 939.58  239 950.5  C 239 961.42  230.64 970  220 970  C 209.36 970  201 961.42  201 950.5  C 201 939.58  209.36 931  220 931  Z " fill-rule="nonzero" fill="#ffffff" stroke="none" />
    <path d="M 220 931.5  C 230.36 931.5  238.5 939.86  238.5 950.5  C 238.5 961.14  230.36 969.5  220 969.5  C 209.64 969.5  201.5 961.14  201.5 950.5  C 201.5 939.86  209.64 931.5  220 931.5  Z " stroke-width="1" stroke="#ffffff" fill="none" />
  </g>
</svg>