<?xml version="1.0" encoding="utf-8"?>
<svg version="1.1" xmlns:xlink="http://www.w3.org/1999/xlink" width="62px" height="64px" xmlns="http://www.w3.org/2000/svg">
  <g transform="matrix(1 0 0 1 -189 -919 )">
    <path d="M 220 919  C 237.36 919  251 933.08  251 951  C 251 968.92  237.36 983  220 983  C 202.64 983  189 968.92  189 951  C 189 933.08  202.64 919  220 919  Z " fill-rule="nonzero" fill="#e9e9e9" stroke="none" />
    <path d="M 220 919.5  C 237.08 919.5  250.5 933.36  250.5 951  C 250.5 968.64  237.08 982.5  220 982.5  C 202.92 982.5  189.5 968.64  189.5 951  C 189.5 933.36  202.92 919.5  220 919.5  Z " stroke-width="1" stroke="#ffffff" fill="none" />
  </g>
</svg>