<?xml version="1.0" encoding="utf-8"?>
<svg version="1.1" xmlns:xlink="http://www.w3.org/1999/xlink" width="30px" height="31px" xmlns="http://www.w3.org/2000/svg">
  <g transform="matrix(1 0 0 1 -314 -4998 )">
    <path d="M 314 4998  L 344 4998  L 344 5029  L 314 5029  L 314 4998  " fill-rule="nonzero" fill="#cccccc" stroke="none" />
    <path d="M 316 5000  L 342 5000  L 342 5027  L 316 5027  L 316 5000  " fill-rule="nonzero" fill="#ffffff" stroke="none" />
    <path d="M 331.85 5007.15  C 330.59 5007.15  329.6 5006.16  329.6 5004.9  C 329.6 5003.64  330.59 5002.65  331.85 5002.65  C 333.11 5002.65  334.1 5003.64  334.1 5004.9  C 334.1 5006.16  333.11 5007.15  331.85 5007.15  " fill-rule="nonzero" fill="#cccccc" stroke="none" />
    <path d="M 317 5026  L 317 5012.25  L 323 5006  L 331.4 5011  L 336.2 5009.75  L 341 5011  L 341 5026  L 317 5026  " fill-rule="nonzero" fill="#169bd5" stroke="none" />
  </g>
</svg>