<?xml version="1.0" encoding="utf-8"?>
<svg version="1.1" xmlns:xlink="http://www.w3.org/1999/xlink" width="80px" height="35px" xmlns="http://www.w3.org/2000/svg">
  <g transform="matrix(1 0 0 1 -886 -83 )">
    <path d="M 887 88  A 4 4 0 0 1 891 84 L 961 84  A 4 4 0 0 1 965 88 L 965 113  A 4 4 0 0 1 961 117 L 891 117  A 4 4 0 0 1 887 113 L 887 88  Z " fill-rule="nonzero" fill="#f0f7ff" stroke="none" />
    <path d="M 886.5 88  A 4.5 4.5 0 0 1 891 83.5 L 961 83.5  A 4.5 4.5 0 0 1 965.5 88 L 965.5 113  A 4.5 4.5 0 0 1 961 117.5 L 891 117.5  A 4.5 4.5 0 0 1 886.5 113 L 886.5 88  Z " stroke-width="1" stroke="#7abbff" fill="none" stroke-opacity="0.996078431372549" />
  </g>
</svg>