<?xml version="1.0" encoding="utf-8"?>
<svg version="1.1" xmlns:xlink="http://www.w3.org/1999/xlink" width="80px" height="35px" xmlns="http://www.w3.org/2000/svg">
  <g transform="matrix(1 0 0 1 -834 -83 )">
    <path d="M 834.5 88  A 4.5 4.5 0 0 1 839 83.5 L 909 83.5  A 4.5 4.5 0 0 1 913.5 88 L 913.5 113  A 4.5 4.5 0 0 1 909 117.5 L 839 117.5  A 4.5 4.5 0 0 1 834.5 113 L 834.5 88  Z " fill-rule="nonzero" fill="#f9f9f9" stroke="none" fill-opacity="0" />
    <path d="M 834.5 88  A 4.5 4.5 0 0 1 839 83.5 L 909 83.5  A 4.5 4.5 0 0 1 913.5 88 L 913.5 113  A 4.5 4.5 0 0 1 909 117.5 L 839 117.5  A 4.5 4.5 0 0 1 834.5 113 L 834.5 88  Z " stroke-width="1" stroke="#409eff" fill="none" />
  </g>
</svg>