<?xml version="1.0" encoding="utf-8"?>
<svg version="1.1" xmlns:xlink="http://www.w3.org/1999/xlink" width="12px" height="12px" viewBox="604 208  12 12" xmlns="http://www.w3.org/2000/svg">
  <path d="M 610 208  C 613.36 208  616 210.64  616 214  C 616 217.36  613.36 220  610 220  C 606.64 220  604 217.36  604 214  C 604 210.64  606.64 208  610 208  Z " fill-rule="nonzero" fill="#ffffff" stroke="none" />
  <path d="M 610 208.5  C 613.08 208.5  615.5 210.92  615.5 214  C 615.5 217.08  613.08 219.5  610 219.5  C 606.92 219.5  604.5 217.08  604.5 214  C 604.5 210.92  606.92 208.5  610 208.5  Z " stroke-width="1" stroke="#f2f2f2" fill="none" />
  <path d="M 610 217  C 608.32 217  607 215.68  607 214  C 607 212.32  608.32 211  610 211  C 611.68 211  613 212.32  613 214  C 613 215.68  611.68 217  610 217  " fill-rule="nonzero" fill="#f2f2f2" stroke="none" />
</svg>