<?xml version="1.0" encoding="utf-8"?>
<svg version="1.1" xmlns:xlink="http://www.w3.org/1999/xlink" width="12px" height="12px" viewBox="1038 252  12 12" xmlns="http://www.w3.org/2000/svg">
  <path d="M 1044 252  C 1047.36 252  1050 254.64  1050 258  C 1050 261.36  1047.36 264  1044 264  C 1040.64 264  1038 261.36  1038 258  C 1038 254.64  1040.64 252  1044 252  Z " fill-rule="nonzero" fill="#ffffff" stroke="none" />
  <path d="M 1044 252.5  C 1047.08 252.5  1049.5 254.92  1049.5 258  C 1049.5 261.08  1047.08 263.5  1044 263.5  C 1040.92 263.5  1038.5 261.08  1038.5 258  C 1038.5 254.92  1040.92 252.5  1044 252.5  Z " stroke-width="1" stroke="#f2f2f2" fill="none" />
  <path d="M 1044 261  C 1042.32 261  1041 259.68  1041 258  C 1041 256.32  1042.32 255  1044 255  C 1045.68 255  1047 256.32  1047 258  C 1047 259.68  1045.68 261  1044 261  " fill-rule="nonzero" fill="#f2f2f2" stroke="none" />
</svg>