<?xml version="1.0" encoding="utf-8"?>
<svg version="1.1" xmlns:xlink="http://www.w3.org/1999/xlink" width="12px" height="12px" viewBox="594 252  12 12" xmlns="http://www.w3.org/2000/svg">
  <path d="M 600 252  C 603.36 252  606 254.64  606 258  C 606 261.36  603.36 264  600 264  C 596.64 264  594 261.36  594 258  C 594 254.64  596.64 252  600 252  Z " fill-rule="nonzero" fill="#f0f0f0" stroke="none" />
  <path d="M 600 252.5  C 603.08 252.5  605.5 254.92  605.5 258  C 605.5 261.08  603.08 263.5  600 263.5  C 596.92 263.5  594.5 261.08  594.5 258  C 594.5 254.92  596.92 252.5  600 252.5  Z " stroke-width="1" stroke="#f2f2f2" fill="none" />
  <path d="M 600 261  C 598.32 261  597 259.68  597 258  C 597 256.32  598.32 255  600 255  C 601.68 255  603 256.32  603 258  C 603 259.68  601.68 261  600 261  " fill-rule="nonzero" fill="#f2f2f2" stroke="none" />
</svg>