<?xml version="1.0" encoding="utf-8"?>
<svg version="1.1" xmlns:xlink="http://www.w3.org/1999/xlink" width="12px" height="12px" viewBox="504 252  12 12" xmlns="http://www.w3.org/2000/svg">
  <path d="M 510 252  C 513.36 252  516 254.64  516 258  C 516 261.36  513.36 264  510 264  C 506.64 264  504 261.36  504 258  C 504 254.64  506.64 252  510 252  Z " fill-rule="nonzero" fill="#ffffff" stroke="none" />
  <path d="M 510 252.5  C 513.08 252.5  515.5 254.92  515.5 258  C 515.5 261.08  513.08 263.5  510 263.5  C 506.92 263.5  504.5 261.08  504.5 258  C 504.5 254.92  506.92 252.5  510 252.5  Z " stroke-width="1" stroke="#f2f2f2" fill="none" />
  <path d="M 510 261  C 508.32 261  507 259.68  507 258  C 507 256.32  508.32 255  510 255  C 511.68 255  513 256.32  513 258  C 513 259.68  511.68 261  510 261  " fill-rule="nonzero" fill="#f2f2f2" stroke="none" />
</svg>