<?xml version="1.0" encoding="utf-8"?>
<svg version="1.1" xmlns:xlink="http://www.w3.org/1999/xlink" width="12px" height="12px" viewBox="574 396  12 12" xmlns="http://www.w3.org/2000/svg">
  <path d="M 580 396  C 583.36 396  586 398.64  586 402  C 586 405.36  583.36 408  580 408  C 576.64 408  574 405.36  574 402  C 574 398.64  576.64 396  580 396  Z " fill-rule="nonzero" fill="#f0f0f0" stroke="none" />
  <path d="M 580 396.5  C 583.08 396.5  585.5 398.92  585.5 402  C 585.5 405.08  583.08 407.5  580 407.5  C 576.92 407.5  574.5 405.08  574.5 402  C 574.5 398.92  576.92 396.5  580 396.5  Z " stroke-width="1" stroke="#f2f2f2" fill="none" />
  <path d="M 580 405  C 578.32 405  577 403.68  577 402  C 577 400.32  578.32 399  580 399  C 581.68 399  583 400.32  583 402  C 583 403.68  581.68 405  580 405  " fill-rule="nonzero" fill="#f2f2f2" stroke="none" />
</svg>