<?xml version="1.0" encoding="utf-8"?>
<svg version="1.1" xmlns:xlink="http://www.w3.org/1999/xlink" width="12px" height="12px" viewBox="1115 396  12 12" xmlns="http://www.w3.org/2000/svg">
  <path d="M 1121 396  C 1124.36 396  1127 398.64  1127 402  C 1127 405.36  1124.36 408  1121 408  C 1117.64 408  1115 405.36  1115 402  C 1115 398.64  1117.64 396  1121 396  Z " fill-rule="nonzero" fill="#f0f0f0" stroke="none" />
  <path d="M 1121 396.5  C 1124.08 396.5  1126.5 398.92  1126.5 402  C 1126.5 405.08  1124.08 407.5  1121 407.5  C 1117.92 407.5  1115.5 405.08  1115.5 402  C 1115.5 398.92  1117.92 396.5  1121 396.5  Z " stroke-width="1" stroke="#f2f2f2" fill="none" />
  <path d="M 1121 405  C 1119.32 405  1118 403.68  1118 402  C 1118 400.32  1119.32 399  1121 399  C 1122.68 399  1124 400.32  1124 402  C 1124 403.68  1122.68 405  1121 405  " fill-rule="nonzero" fill="#f2f2f2" stroke="none" />
</svg>