<?xml version="1.0" encoding="utf-8"?>
<svg version="1.1" xmlns:xlink="http://www.w3.org/1999/xlink" width="12px" height="12px" viewBox="504 208  12 12" xmlns="http://www.w3.org/2000/svg">
  <path d="M 510 208  C 513.36 208  516 210.64  516 214  C 516 217.36  513.36 220  510 220  C 506.64 220  504 217.36  504 214  C 504 210.64  506.64 208  510 208  Z " fill-rule="nonzero" fill="#ffffff" stroke="none" />
  <path d="M 510 208.5  C 513.08 208.5  515.5 210.92  515.5 214  C 515.5 217.08  513.08 219.5  510 219.5  C 506.92 219.5  504.5 217.08  504.5 214  C 504.5 210.92  506.92 208.5  510 208.5  Z " stroke-width="1" stroke="#f2f2f2" fill="none" />
  <path d="M 510 217  C 508.32 217  507 215.68  507 214  C 507 212.32  508.32 211  510 211  C 511.68 211  513 212.32  513 214  C 513 215.68  511.68 217  510 217  " fill-rule="nonzero" fill="#f2f2f2" stroke="none" />
</svg>