<?xml version="1.0" encoding="utf-8"?>
<svg version="1.1" xmlns:xlink="http://www.w3.org/1999/xlink" width="12px" height="12px" viewBox="1045 396  12 12" xmlns="http://www.w3.org/2000/svg">
  <path d="M 1051 396  C 1054.36 396  1057 398.64  1057 402  C 1057 405.36  1054.36 408  1051 408  C 1047.64 408  1045 405.36  1045 402  C 1045 398.64  1047.64 396  1051 396  Z " fill-rule="nonzero" fill="#f0f0f0" stroke="none" />
  <path d="M 1051 396.5  C 1054.08 396.5  1056.5 398.92  1056.5 402  C 1056.5 405.08  1054.08 407.5  1051 407.5  C 1047.92 407.5  1045.5 405.08  1045.5 402  C 1045.5 398.92  1047.92 396.5  1051 396.5  Z " stroke-width="1" stroke="#f2f2f2" fill="none" />
  <path d="M 1051 405  C 1049.32 405  1048 403.68  1048 402  C 1048 400.32  1049.32 399  1051 399  C 1052.68 399  1054 400.32  1054 402  C 1054 403.68  1052.68 405  1051 405  " fill-rule="nonzero" fill="#f2f2f2" stroke="none" />
</svg>