<?xml version="1.0" encoding="utf-8"?>
<svg version="1.1" xmlns:xlink="http://www.w3.org/1999/xlink" width="12px" height="12px" viewBox="1108 252  12 12" xmlns="http://www.w3.org/2000/svg">
  <path d="M 1114 252  C 1117.36 252  1120 254.64  1120 258  C 1120 261.36  1117.36 264  1114 264  C 1110.64 264  1108 261.36  1108 258  C 1108 254.64  1110.64 252  1114 252  Z " fill-rule="nonzero" fill="#f0f0f0" stroke="none" />
  <path d="M 1114 252.5  C 1117.08 252.5  1119.5 254.92  1119.5 258  C 1119.5 261.08  1117.08 263.5  1114 263.5  C 1110.92 263.5  1108.5 261.08  1108.5 258  C 1108.5 254.92  1110.92 252.5  1114 252.5  Z " stroke-width="1" stroke="#f2f2f2" fill="none" />
  <path d="M 1114 261  C 1112.32 261  1111 259.68  1111 258  C 1111 256.32  1112.32 255  1114 255  C 1115.68 255  1117 256.32  1117 258  C 1117 259.68  1115.68 261  1114 261  " fill-rule="nonzero" fill="#f2f2f2" stroke="none" />
</svg>