<?xml version="1.0" encoding="utf-8"?>
<svg version="1.1" xmlns:xlink="http://www.w3.org/1999/xlink" width="12px" height="12px" viewBox="1190 252  12 12" xmlns="http://www.w3.org/2000/svg">
  <path d="M 1196 252  C 1199.36 252  1202 254.64  1202 258  C 1202 261.36  1199.36 264  1196 264  C 1192.64 264  1190 261.36  1190 258  C 1190 254.64  1192.64 252  1196 252  Z " fill-rule="nonzero" fill="#f0f0f0" stroke="none" />
  <path d="M 1196 252.5  C 1199.08 252.5  1201.5 254.92  1201.5 258  C 1201.5 261.08  1199.08 263.5  1196 263.5  C 1192.92 263.5  1190.5 261.08  1190.5 258  C 1190.5 254.92  1192.92 252.5  1196 252.5  Z " stroke-width="1" stroke="#f2f2f2" fill="none" />
  <path d="M 1196 261  C 1194.32 261  1193 259.68  1193 258  C 1193 256.32  1194.32 255  1196 255  C 1197.68 255  1199 256.32  1199 258  C 1199 259.68  1197.68 261  1196 261  " fill-rule="nonzero" fill="#f2f2f2" stroke="none" />
</svg>