<?xml version="1.0" encoding="utf-8"?>
<svg version="1.1" xmlns:xlink="http://www.w3.org/1999/xlink" width="104px" height="104px" xmlns="http://www.w3.org/2000/svg">
  <g transform="matrix(1 0 0 1 -229 -1098 )">
    <path d="M 229 1098  L 333 1098  L 333 1202  L 229 1202  L 229 1098  " fill-rule="nonzero" fill="#cccccc" stroke="none" />
    <path d="M 236 1105  L 326 1105  L 326 1195  L 236 1195  L 236 1105  " fill-rule="nonzero" fill="#ffffff" stroke="none" />
    <path d="M 290.88 1129.2  C 286.512 1129.2  283.08 1125.768  283.08 1121.4  C 283.08 1117.032  286.512 1113.6  290.88 1113.6  C 295.248 1113.6  298.68 1117.032  298.68 1121.4  C 298.68 1125.768  295.248 1129.2  290.88 1129.2  " fill-rule="nonzero" fill="#cccccc" stroke="none" />
    <path d="M 239 1193  L 239 1146.25  L 260.25 1125  L 290 1142  L 307 1137.75  L 324 1142  L 324 1193  L 239 1193  " fill-rule="nonzero" fill="#169bd5" stroke="none" />
  </g>
</svg>