<?xml version="1.0" encoding="utf-8"?>
<svg version="1.1" xmlns:xlink="http://www.w3.org/1999/xlink" width="12px" height="12px" viewBox="1041 248  12 12" xmlns="http://www.w3.org/2000/svg">
  <path d="M 1047 248  C 1050.36 248  1053 250.64  1053 254  C 1053 257.36  1050.36 260  1047 260  C 1043.64 260  1041 257.36  1041 254  C 1041 250.64  1043.64 248  1047 248  Z " fill-rule="nonzero" fill="#ffffff" stroke="none" />
  <path d="M 1047 248.5  C 1050.08 248.5  1052.5 250.92  1052.5 254  C 1052.5 257.08  1050.08 259.5  1047 259.5  C 1043.92 259.5  1041.5 257.08  1041.5 254  C 1041.5 250.92  1043.92 248.5  1047 248.5  Z " stroke-width="1" stroke="#f2f2f2" fill="none" />
  <path d="M 1047 257  C 1045.32 257  1044 255.68  1044 254  C 1044 252.32  1045.32 251  1047 251  C 1048.68 251  1050 252.32  1050 254  C 1050 255.68  1048.68 257  1047 257  " fill-rule="nonzero" fill="#f2f2f2" stroke="none" />
</svg>