<?xml version="1.0" encoding="utf-8"?>
<svg version="1.1" xmlns:xlink="http://www.w3.org/1999/xlink" width="12px" height="12px" viewBox="574 684  12 12" xmlns="http://www.w3.org/2000/svg">
  <path d="M 580 684  C 583.36 684  586 686.64  586 690  C 586 693.36  583.36 696  580 696  C 576.64 696  574 693.36  574 690  C 574 686.64  576.64 684  580 684  Z " fill-rule="nonzero" fill="#f0f0f0" stroke="none" />
  <path d="M 580 684.5  C 583.08 684.5  585.5 686.92  585.5 690  C 585.5 693.08  583.08 695.5  580 695.5  C 576.92 695.5  574.5 693.08  574.5 690  C 574.5 686.92  576.92 684.5  580 684.5  Z " stroke-width="1" stroke="#f2f2f2" fill="none" />
  <path d="M 580 693  C 578.32 693  577 691.68  577 690  C 577 688.32  578.32 687  580 687  C 581.68 687  583 688.32  583 690  C 583 691.68  581.68 693  580 693  " fill-rule="nonzero" fill="#f2f2f2" stroke="none" />
</svg>