<?xml version="1.0" encoding="utf-8"?>
<svg version="1.1" xmlns:xlink="http://www.w3.org/1999/xlink" width="12px" height="12px" viewBox="1026 684  12 12" xmlns="http://www.w3.org/2000/svg">
  <path d="M 1032 684  C 1035.36 684  1038 686.64  1038 690  C 1038 693.36  1035.36 696  1032 696  C 1028.64 696  1026 693.36  1026 690  C 1026 686.64  1028.64 684  1032 684  Z " fill-rule="nonzero" fill="#f0f0f0" stroke="none" />
  <path d="M 1032 684.5  C 1035.08 684.5  1037.5 686.92  1037.5 690  C 1037.5 693.08  1035.08 695.5  1032 695.5  C 1028.92 695.5  1026.5 693.08  1026.5 690  C 1026.5 686.92  1028.92 684.5  1032 684.5  Z " stroke-width="1" stroke="#f2f2f2" fill="none" />
  <path d="M 1032 693  C 1030.32 693  1029 691.68  1029 690  C 1029 688.32  1030.32 687  1032 687  C 1033.68 687  1035 688.32  1035 690  C 1035 691.68  1033.68 693  1032 693  " fill-rule="nonzero" fill="#f2f2f2" stroke="none" />
</svg>