<?xml version="1.0" encoding="utf-8"?>
<svg version="1.1" xmlns:xlink="http://www.w3.org/1999/xlink" width="12px" height="12px" viewBox="504 415  12 12" xmlns="http://www.w3.org/2000/svg">
  <path d="M 510 415  C 513.36 415  516 417.64  516 421  C 516 424.36  513.36 427  510 427  C 506.64 427  504 424.36  504 421  C 504 417.64  506.64 415  510 415  Z " fill-rule="nonzero" fill="#f0f0f0" stroke="none" />
  <path d="M 510 415.5  C 513.08 415.5  515.5 417.92  515.5 421  C 515.5 424.08  513.08 426.5  510 426.5  C 506.92 426.5  504.5 424.08  504.5 421  C 504.5 417.92  506.92 415.5  510 415.5  Z " stroke-width="1" stroke="#f2f2f2" fill="none" />
  <path d="M 510 424  C 508.32 424  507 422.68  507 421  C 507 419.32  508.32 418  510 418  C 511.68 418  513 419.32  513 421  C 513 422.68  511.68 424  510 424  " fill-rule="nonzero" fill="#f2f2f2" stroke="none" />
</svg>