<?xml version="1.0" encoding="utf-8"?>
<svg version="1.1" xmlns:xlink="http://www.w3.org/1999/xlink" width="12px" height="12px" viewBox="574 415  12 12" xmlns="http://www.w3.org/2000/svg">
  <path d="M 580 415  C 583.36 415  586 417.64  586 421  C 586 424.36  583.36 427  580 427  C 576.64 427  574 424.36  574 421  C 574 417.64  576.64 415  580 415  Z " fill-rule="nonzero" fill="#f0f0f0" stroke="none" />
  <path d="M 580 415.5  C 583.08 415.5  585.5 417.92  585.5 421  C 585.5 424.08  583.08 426.5  580 426.5  C 576.92 426.5  574.5 424.08  574.5 421  C 574.5 417.92  576.92 415.5  580 415.5  Z " stroke-width="1" stroke="#f2f2f2" fill="none" />
  <path d="M 580 424  C 578.32 424  577 422.68  577 421  C 577 419.32  578.32 418  580 418  C 581.68 418  583 419.32  583 421  C 583 422.68  581.68 424  580 424  " fill-rule="nonzero" fill="#f2f2f2" stroke="none" />
</svg>