<?xml version="1.0" encoding="utf-8"?>
<svg version="1.1" xmlns:xlink="http://www.w3.org/1999/xlink" width="12px" height="12px" viewBox="504 684  12 12" xmlns="http://www.w3.org/2000/svg">
  <path d="M 510 684  C 513.36 684  516 686.64  516 690  C 516 693.36  513.36 696  510 696  C 506.64 696  504 693.36  504 690  C 504 686.64  506.64 684  510 684  Z " fill-rule="nonzero" fill="#ffffff" stroke="none" />
  <path d="M 510 684.5  C 513.08 684.5  515.5 686.92  515.5 690  C 515.5 693.08  513.08 695.5  510 695.5  C 506.92 695.5  504.5 693.08  504.5 690  C 504.5 686.92  506.92 684.5  510 684.5  Z " stroke-width="1" stroke="#f2f2f2" fill="none" />
  <path d="M 510 693  C 508.32 693  507 691.68  507 690  C 507 688.32  508.32 687  510 687  C 511.68 687  513 688.32  513 690  C 513 691.68  511.68 693  510 693  " fill-rule="nonzero" fill="#f2f2f2" stroke="none" />
</svg>