<?xml version="1.0" encoding="utf-8"?>
<svg version="1.1" xmlns:xlink="http://www.w3.org/1999/xlink" width="70px" height="25px" xmlns="http://www.w3.org/2000/svg">
  <g transform="matrix(1 0 0 1 -338 -230 )">
    <path d="M 339 238  A 7 7 0 0 1 346 231 L 400 231  A 7 7 0 0 1 407 238 L 407 247  A 7 7 0 0 1 400 254 L 346 254  A 7 7 0 0 1 339 247 L 339 238  Z " fill-rule="nonzero" fill="#ec808d" stroke="none" fill-opacity="0.168627450980392" />
    <path d="M 338.5 238  A 7.5 7.5 0 0 1 346 230.5 L 400 230.5  A 7.5 7.5 0 0 1 407.5 238 L 407.5 247  A 7.5 7.5 0 0 1 400 254.5 L 346 254.5  A 7.5 7.5 0 0 1 338.5 247 L 338.5 238  Z " stroke-width="1" stroke="#d9001b" fill="none" stroke-opacity="0.654901960784314" />
  </g>
</svg>