<?xml version="1.0" encoding="utf-8"?>
<svg version="1.1" xmlns:xlink="http://www.w3.org/1999/xlink" width="262px" height="90px" xmlns="http://www.w3.org/2000/svg">
  <defs>
    <linearGradient gradientUnits="userSpaceOnUse" x1="1282.49438202247" y1="344" x2="994" y2="344" id="LinearGradient272">
      <stop id="Stop273" stop-color="#f59a23" stop-opacity="0.827450980392157" offset="0" />
      <stop id="Stop274" stop-color="#d9001b" stop-opacity="0.572549019607843" offset="1" />
    </linearGradient>
  </defs>
  <g transform="matrix(1 0 0 1 -994 -299 )">
    <path d="M 994.5 307  A 7.5 7.5 0 0 1 1002 299.5 L 1248 299.5  A 7.5 7.5 0 0 1 1255.5 307 L 1255.5 381  A 7.5 7.5 0 0 1 1248 388.5 L 1002 388.5  A 7.5 7.5 0 0 1 994.5 381 L 994.5 307  Z " fill-rule="nonzero" fill="url(#LinearGradient272)" stroke="none" />
    <path d="M 994.5 307  A 7.5 7.5 0 0 1 1002 299.5 L 1248 299.5  A 7.5 7.5 0 0 1 1255.5 307 L 1255.5 381  A 7.5 7.5 0 0 1 1248 388.5 L 1002 388.5  A 7.5 7.5 0 0 1 994.5 381 L 994.5 307  Z " stroke-width="1" stroke="#f2f2f2" fill="none" />
  </g>
</svg>