<?xml version="1.0" encoding="utf-8"?>
<svg version="1.1" xmlns:xlink="http://www.w3.org/1999/xlink" width="8px" height="8px" xmlns="http://www.w3.org/2000/svg">
  <g transform="matrix(1 0 0 1 -1069 -414 )">
    <path d="M 1073 415  C 1074.68 415  1076 416.32  1076 418  C 1076 419.68  1074.68 421  1073 421  C 1071.32 421  1070 419.68  1070 418  C 1070 416.32  1071.32 415  1073 415  Z " fill-rule="nonzero" fill="#ffffff" stroke="none" />
    <path d="M 1073 415  C 1074.68 415  1076 416.32  1076 418  C 1076 419.68  1074.68 421  1073 421  C 1071.32 421  1070 419.68  1070 418  C 1070 416.32  1071.32 415  1073 415  Z " stroke-width="2" stroke="#2db7f5" fill="none" />
  </g>
</svg>