<?xml version="1.0" encoding="utf-8"?>
<svg version="1.1" xmlns:xlink="http://www.w3.org/1999/xlink" width="24px" height="28px" xmlns="http://www.w3.org/2000/svg">
  <defs>
    <filter x="950px" y="633px" width="24px" height="28px" filterUnits="userSpaceOnUse" id="filter221">
      <feOffset dx="0" dy="1" in="SourceAlpha" result="shadowOffsetInner" />
      <feGaussianBlur stdDeviation="1" in="shadowOffsetInner" result="shadowGaussian" />
      <feComposite in2="shadowGaussian" operator="atop" in="SourceAlpha" result="shadowComposite" />
      <feColorMatrix type="matrix" values="0 0 0 0 0  0 0 0 0 0  0 0 0 0 0  0 0 0 0.349019607843137 0  " in="shadowComposite" />
    </filter>
    <g id="widget222">
      <path d="M 962 634  C 967.6 634  972 639.28  972 646  C 972 652.72  967.6 658  962 658  C 956.4 658  952 652.72  952 646  C 952 639.28  956.4 634  962 634  Z " fill-rule="nonzero" fill="#ffffff" stroke="none" />
      <path d="M 962 634.5  C 967.32 634.5  971.5 639.56  971.5 646  C 971.5 652.44  967.32 657.5  962 657.5  C 956.68 657.5  952.5 652.44  952.5 646  C 952.5 639.56  956.68 634.5  962 634.5  Z " stroke-width="1" stroke="#d9d9d9" fill="none" />
    </g>
  </defs>
  <g transform="matrix(1 0 0 1 -950 -633 )">
    <use xlink:href="#widget222" filter="url(#filter221)" />
    <use xlink:href="#widget222" />
  </g>
</svg>