<?xml version="1.0" encoding="utf-8"?>
<svg version="1.1" xmlns:xlink="http://www.w3.org/1999/xlink" width="80px" height="35px" xmlns="http://www.w3.org/2000/svg">
  <g transform="matrix(1 0 0 1 -886 -83 )">
    <path d="M 886.5 88  A 4.5 4.5 0 0 1 891 83.5 L 961 83.5  A 4.5 4.5 0 0 1 965.5 88 L 965.5 113  A 4.5 4.5 0 0 1 961 117.5 L 891 117.5  A 4.5 4.5 0 0 1 886.5 113 L 886.5 88  Z " fill-rule="nonzero" fill="#f9f9f9" stroke="none" fill-opacity="0" />
    <path d="M 886.5 88  A 4.5 4.5 0 0 1 891 83.5 L 961 83.5  A 4.5 4.5 0 0 1 965.5 88 L 965.5 113  A 4.5 4.5 0 0 1 961 117.5 L 891 117.5  A 4.5 4.5 0 0 1 886.5 113 L 886.5 88  Z " stroke-width="1" stroke="#e4e4e4" fill="none" />
  </g>
</svg>