<?xml version="1.0" encoding="utf-8"?>
<svg version="1.1" xmlns:xlink="http://www.w3.org/1999/xlink" width="12px" height="12px" viewBox="830 347.5  12 12" xmlns="http://www.w3.org/2000/svg">
  <path d="M 836 347.5  C 839.36 347.5  842 350.14  842 353.5  C 842 356.86  839.36 359.5  836 359.5  C 832.64 359.5  830 356.86  830 353.5  C 830 350.14  832.64 347.5  836 347.5  Z " fill-rule="nonzero" fill="#ffffff" stroke="none" />
  <path d="M 836 348  C 839.08 348  841.5 350.42  841.5 353.5  C 841.5 356.58  839.08 359  836 359  C 832.92 359  830.5 356.58  830.5 353.5  C 830.5 350.42  832.92 348  836 348  Z " stroke-width="1" stroke="#f2f2f2" fill="none" />
  <path d="M 836 356.5  C 834.32 356.5  833 355.18  833 353.5  C 833 351.82  834.32 350.5  836 350.5  C 837.68 350.5  839 351.82  839 353.5  C 839 355.18  837.68 356.5  836 356.5  " fill-rule="nonzero" fill="#f2f2f2" stroke="none" />
</svg>