<?xml version="1.0" encoding="utf-8"?>
<svg version="1.1" xmlns:xlink="http://www.w3.org/1999/xlink" width="12px" height="12px" viewBox="749 347.5  12 12" xmlns="http://www.w3.org/2000/svg">
  <path d="M 755 347.5  C 758.36 347.5  761 350.14  761 353.5  C 761 356.86  758.36 359.5  755 359.5  C 751.64 359.5  749 356.86  749 353.5  C 749 350.14  751.64 347.5  755 347.5  Z " fill-rule="nonzero" fill="#f0f0f0" stroke="none" />
  <path d="M 755 348  C 758.08 348  760.5 350.42  760.5 353.5  C 760.5 356.58  758.08 359  755 359  C 751.92 359  749.5 356.58  749.5 353.5  C 749.5 350.42  751.92 348  755 348  Z " stroke-width="1" stroke="#f2f2f2" fill="none" />
  <path d="M 755 356.5  C 753.32 356.5  752 355.18  752 353.5  C 752 351.82  753.32 350.5  755 350.5  C 756.68 350.5  758 351.82  758 353.5  C 758 355.18  756.68 356.5  755 356.5  " fill-rule="nonzero" fill="#f2f2f2" stroke="none" />
</svg>