<?xml version="1.0" encoding="utf-8"?>
<svg version="1.1" xmlns:xlink="http://www.w3.org/1999/xlink" width="137px" height="37px" xmlns="http://www.w3.org/2000/svg">
  <g transform="matrix(1 0 0 1 -934 -408 )">
    <path d="M 934 408  L 1071 408  L 1071 445  L 934 445  L 934 408  " fill-rule="nonzero" fill="#cccccc" stroke="none" />
    <path d="M 937 411  L 1068 411  L 1068 442  L 937 442  L 937 411  " fill-rule="nonzero" fill="#ffffff" stroke="none" />
    <path d="M 1008.015 419.1  C 1006.461 419.1  1005.24 417.879  1005.24 416.325  C 1005.24 414.771  1006.461 413.55  1008.015 413.55  C 1009.569 413.55  1010.79 414.771  1010.79 416.325  C 1010.79 417.879  1009.569 419.1  1008.015 419.1  " fill-rule="nonzero" fill="#cccccc" stroke="none" />
    <path d="M 938 441  L 938 425.05  L 970.25 417.8  L 1015.4 436.300729927007  L 1041.2 422.15  L 1067 436.300729927007  L 1067 441  L 938 441  " fill-rule="nonzero" fill="#169bd5" stroke="none" />
  </g>
</svg>