<?xml version="1.0" encoding="utf-8"?>
<svg version="1.1" xmlns:xlink="http://www.w3.org/1999/xlink" width="12px" height="12px" viewBox="412 584.5  12 12" xmlns="http://www.w3.org/2000/svg">
  <path d="M 418 584.5  C 421.36 584.5  424 587.14  424 590.5  C 424 593.86  421.36 596.5  418 596.5  C 414.64 596.5  412 593.86  412 590.5  C 412 587.14  414.64 584.5  418 584.5  Z " fill-rule="nonzero" fill="#f0f0f0" stroke="none" />
  <path d="M 418 585  C 421.08 585  423.5 587.42  423.5 590.5  C 423.5 593.58  421.08 596  418 596  C 414.92 596  412.5 593.58  412.5 590.5  C 412.5 587.42  414.92 585  418 585  Z " stroke-width="1" stroke="#f2f2f2" fill="none" />
  <path d="M 418 593.5  C 416.32 593.5  415 592.18  415 590.5  C 415 588.82  416.32 587.5  418 587.5  C 419.68 587.5  421 588.82  421 590.5  C 421 592.18  419.68 593.5  418 593.5  " fill-rule="nonzero" fill="#f2f2f2" stroke="none" />
</svg>