<?xml version="1.0" encoding="utf-8"?>
<svg version="1.1" xmlns:xlink="http://www.w3.org/1999/xlink" width="12px" height="12px" viewBox="506 584.5  12 12" xmlns="http://www.w3.org/2000/svg">
  <path d="M 512 584.5  C 515.36 584.5  518 587.14  518 590.5  C 518 593.86  515.36 596.5  512 596.5  C 508.64 596.5  506 593.86  506 590.5  C 506 587.14  508.64 584.5  512 584.5  Z " fill-rule="nonzero" fill="#f0f0f0" stroke="none" />
  <path d="M 512 585  C 515.08 585  517.5 587.42  517.5 590.5  C 517.5 593.58  515.08 596  512 596  C 508.92 596  506.5 593.58  506.5 590.5  C 506.5 587.42  508.92 585  512 585  Z " stroke-width="1" stroke="#f2f2f2" fill="none" />
  <path d="M 512 593.5  C 510.32 593.5  509 592.18  509 590.5  C 509 588.82  510.32 587.5  512 587.5  C 513.68 587.5  515 588.82  515 590.5  C 515 592.18  513.68 593.5  512 593.5  " fill-rule="nonzero" fill="#f2f2f2" stroke="none" />
</svg>