<?xml version="1.0" encoding="utf-8"?>
<svg version="1.1" xmlns:xlink="http://www.w3.org/1999/xlink" width="115px" height="40px" xmlns="http://www.w3.org/2000/svg">
  <defs>
    <mask fill="white" id="clip16">
      <path d="M 0 36  L 0 4  C 0 1.75999999999999  2.66315789473683 0  6.05263157894737 0  L 108.947368421053 0  C 112.336842105263 0  115 1.75999999999999  115 4  L 115 36  C 115 38.24  112.336842105263 40  108.947368421053 40  L 58.2236842105263 40  L 6.05263157894737 40  C 2.66315789473683 40  0 38.24  0 36  Z " fill-rule="evenodd" />
    </mask>
  </defs>
  <g transform="matrix(1 0 0 1 -652 -1156 )">
    <path d="M 0 36  L 0 4  C 0 1.75999999999999  2.66315789473683 0  6.05263157894737 0  L 108.947368421053 0  C 112.336842105263 0  115 1.75999999999999  115 4  L 115 36  C 115 38.24  112.336842105263 40  108.947368421053 40  L 58.2236842105263 40  L 6.05263157894737 40  C 2.66315789473683 40  0 38.24  0 36  Z " fill-rule="nonzero" fill="#f59a23" stroke="none" transform="matrix(1 0 0 1 652 1156 )" />
    <path d="M 0 36  L 0 4  C 0 1.75999999999999  2.66315789473683 0  6.05263157894737 0  L 108.947368421053 0  C 112.336842105263 0  115 1.75999999999999  115 4  L 115 36  C 115 38.24  112.336842105263 40  108.947368421053 40  L 58.2236842105263 40  L 6.05263157894737 40  C 2.66315789473683 40  0 38.24  0 36  Z " stroke-width="2" stroke="#e9e9e9" fill="none" transform="matrix(1 0 0 1 652 1156 )" mask="url(#clip16)" />
  </g>
</svg>