<?xml version="1.0" encoding="utf-8"?>
<svg version="1.1" xmlns:xlink="http://www.w3.org/1999/xlink" width="24px" height="13px" xmlns="http://www.w3.org/2000/svg">
  <g transform="matrix(1 0 0 1 -793 -613 )">
    <path d="M 23.5546875 0.428819444444445  C 23.8515625 0.714699074074073  24 1.05324074074074  24 1.44444444444445  C 24 1.83564814814815  23.8515625 2.17418981481481  23.5546875 2.46006944444445  L 13.0546875 12.5711805555556  C 12.7578125 12.8570601851852  12.40625 13  12 13  C 11.59375 13  11.2421875 12.8570601851852  10.9453125 12.5711805555556  L 0.4453125 2.46006944444445  C 0.1484375 2.17418981481481  0 1.83564814814815  0 1.44444444444445  C 0 1.05324074074074  0.1484375 0.714699074074073  0.4453125 0.428819444444445  C 0.7421875 0.142939814814813  1.09375 0  1.5 0  L 22.5 0  C 22.90625 0  23.2578125 0.142939814814813  23.5546875 0.428819444444445  Z " fill-rule="nonzero" fill="#7f7f7f" stroke="none" transform="matrix(1 0 0 1 793 613 )" />
  </g>
</svg>