<?xml version="1.0" encoding="utf-8"?>
<svg version="1.1" xmlns:xlink="http://www.w3.org/1999/xlink" width="12px" height="12px" viewBox="217 659.5  12 12" xmlns="http://www.w3.org/2000/svg">
  <path d="M 223 659.5  C 226.36 659.5  229 662.14  229 665.5  C 229 668.86  226.36 671.5  223 671.5  C 219.64 671.5  217 668.86  217 665.5  C 217 662.14  219.64 659.5  223 659.5  Z " fill-rule="nonzero" fill="#f0f0f0" stroke="none" />
  <path d="M 223 660  C 226.08 660  228.5 662.42  228.5 665.5  C 228.5 668.58  226.08 671  223 671  C 219.92 671  217.5 668.58  217.5 665.5  C 217.5 662.42  219.92 660  223 660  Z " stroke-width="1" stroke="#f2f2f2" fill="none" />
  <path d="M 223 668.5  C 221.32 668.5  220 667.18  220 665.5  C 220 663.82  221.32 662.5  223 662.5  C 224.68 662.5  226 663.82  226 665.5  C 226 667.18  224.68 668.5  223 668.5  " fill-rule="nonzero" fill="#f2f2f2" stroke="none" />
</svg>