<?xml version="1.0" encoding="utf-8"?>
<svg version="1.1" xmlns:xlink="http://www.w3.org/1999/xlink" width="12px" height="12px" viewBox="480 659.5  12 12" xmlns="http://www.w3.org/2000/svg">
  <path d="M 486 659.5  C 489.36 659.5  492 662.14  492 665.5  C 492 668.86  489.36 671.5  486 671.5  C 482.64 671.5  480 668.86  480 665.5  C 480 662.14  482.64 659.5  486 659.5  Z " fill-rule="nonzero" fill="#ffffff" stroke="none" />
  <path d="M 486 660  C 489.08 660  491.5 662.42  491.5 665.5  C 491.5 668.58  489.08 671  486 671  C 482.92 671  480.5 668.58  480.5 665.5  C 480.5 662.42  482.92 660  486 660  Z " stroke-width="1" stroke="#f2f2f2" fill="none" />
  <path d="M 486 668.5  C 484.32 668.5  483 667.18  483 665.5  C 483 663.82  484.32 662.5  486 662.5  C 487.68 662.5  489 663.82  489 665.5  C 489 667.18  487.68 668.5  486 668.5  " fill-rule="nonzero" fill="#f2f2f2" stroke="none" />
</svg>