<?xml version="1.0" encoding="utf-8"?>
<svg version="1.1" xmlns:xlink="http://www.w3.org/1999/xlink" width="12px" height="12px" viewBox="353 542.5  12 12" xmlns="http://www.w3.org/2000/svg">
  <path d="M 359 542.5  C 362.36 542.5  365 545.14  365 548.5  C 365 551.86  362.36 554.5  359 554.5  C 355.64 554.5  353 551.86  353 548.5  C 353 545.14  355.64 542.5  359 542.5  Z " fill-rule="nonzero" fill="#f0f0f0" stroke="none" />
  <path d="M 359 543  C 362.08 543  364.5 545.42  364.5 548.5  C 364.5 551.58  362.08 554  359 554  C 355.92 554  353.5 551.58  353.5 548.5  C 353.5 545.42  355.92 543  359 543  Z " stroke-width="1" stroke="#f2f2f2" fill="none" />
  <path d="M 359 551.5  C 357.32 551.5  356 550.18  356 548.5  C 356 546.82  357.32 545.5  359 545.5  C 360.68 545.5  362 546.82  362 548.5  C 362 550.18  360.68 551.5  359 551.5  " fill-rule="nonzero" fill="#f2f2f2" stroke="none" />
</svg>