<?xml version="1.0" encoding="utf-8"?>
<svg version="1.1" xmlns:xlink="http://www.w3.org/1999/xlink" width="12px" height="12px" viewBox="217 542.5  12 12" xmlns="http://www.w3.org/2000/svg">
  <path d="M 223 542.5  C 226.36 542.5  229 545.14  229 548.5  C 229 551.86  226.36 554.5  223 554.5  C 219.64 554.5  217 551.86  217 548.5  C 217 545.14  219.64 542.5  223 542.5  Z " fill-rule="nonzero" fill="#f0f0f0" stroke="none" />
  <path d="M 223 543  C 226.08 543  228.5 545.42  228.5 548.5  C 228.5 551.58  226.08 554  223 554  C 219.92 554  217.5 551.58  217.5 548.5  C 217.5 545.42  219.92 543  223 543  Z " stroke-width="1" stroke="#f2f2f2" fill="none" />
  <path d="M 223 551.5  C 221.32 551.5  220 550.18  220 548.5  C 220 546.82  221.32 545.5  223 545.5  C 224.68 545.5  226 546.82  226 548.5  C 226 550.18  224.68 551.5  223 551.5  " fill-rule="nonzero" fill="#f2f2f2" stroke="none" />
</svg>