<?xml version="1.0" encoding="utf-8"?>
<svg version="1.1" xmlns:xlink="http://www.w3.org/1999/xlink" width="120px" height="120px" xmlns="http://www.w3.org/2000/svg">
  <g transform="matrix(1 0 0 1 -217 -917 )">
    <path d="M 218 921  A 3 3 0 0 1 221 918 L 333 918  A 3 3 0 0 1 336 921 L 336 1033  A 3 3 0 0 1 333 1036 L 221 1036  A 3 3 0 0 1 218 1033 L 218 921  Z " fill-rule="nonzero" fill="#000000" stroke="none" fill-opacity="0.0196078431372549" />
    <path d="M 217.5 921  A 3.5 3.5 0 0 1 221 917.5 L 333 917.5  A 3.5 3.5 0 0 1 336.5 921 L 336.5 1033  A 3.5 3.5 0 0 1 333 1036.5 L 221 1036.5  A 3.5 3.5 0 0 1 217.5 1033 L 217.5 921  Z " stroke-width="1" stroke-dasharray="9,4" stroke="#d9d9d9" fill="none" stroke-dashoffset="0.5" />
  </g>
</svg>