<?xml version="1.0" encoding="utf-8"?>
<svg version="1.1" xmlns:xlink="http://www.w3.org/1999/xlink" width="12px" height="12px" viewBox="353 659.5  12 12" xmlns="http://www.w3.org/2000/svg">
  <path d="M 359 659.5  C 362.36 659.5  365 662.14  365 665.5  C 365 668.86  362.36 671.5  359 671.5  C 355.64 671.5  353 668.86  353 665.5  C 353 662.14  355.64 659.5  359 659.5  Z " fill-rule="nonzero" fill="#f0f0f0" stroke="none" />
  <path d="M 359 660  C 362.08 660  364.5 662.42  364.5 665.5  C 364.5 668.58  362.08 671  359 671  C 355.92 671  353.5 668.58  353.5 665.5  C 353.5 662.42  355.92 660  359 660  Z " stroke-width="1" stroke="#f2f2f2" fill="none" />
  <path d="M 359 668.5  C 357.32 668.5  356 667.18  356 665.5  C 356 663.82  357.32 662.5  359 662.5  C 360.68 662.5  362 663.82  362 665.5  C 362 667.18  360.68 668.5  359 668.5  " fill-rule="nonzero" fill="#f2f2f2" stroke="none" />
</svg>