<?xml version="1.0" encoding="utf-8"?>
<svg version="1.1" xmlns:xlink="http://www.w3.org/1999/xlink" width="80px" height="30px" xmlns="http://www.w3.org/2000/svg">
  <g transform="matrix(1 0 0 1 -2096 -448 )">
    <path d="M 2096.5 451  A 2.5 2.5 0 0 1 2099 448.5 L 2173 448.5  A 2.5 2.5 0 0 1 2175.5 451 L 2175.5 475  A 2.5 2.5 0 0 1 2173 477.5 L 2099 477.5  A 2.5 2.5 0 0 1 2096.5 475 L 2096.5 451  Z " fill-rule="nonzero" fill="#f9f9f9" stroke="none" />
    <path d="M 2096.5 451  A 2.5 2.5 0 0 1 2099 448.5 L 2173 448.5  A 2.5 2.5 0 0 1 2175.5 451 L 2175.5 475  A 2.5 2.5 0 0 1 2173 477.5 L 2099 477.5  A 2.5 2.5 0 0 1 2096.5 475 L 2096.5 451  Z " stroke-width="1" stroke="#e4e4e4" fill="none" />
  </g>
</svg>