<?xml version="1.0" encoding="utf-8"?>
<svg version="1.1" xmlns:xlink="http://www.w3.org/1999/xlink" width="80px" height="30px" xmlns="http://www.w3.org/2000/svg">
  <g transform="matrix(1 0 0 1 -2096 -448 )">
    <path d="M 2097 451  A 2 2 0 0 1 2099 449 L 2173 449  A 2 2 0 0 1 2175 451 L 2175 475  A 2 2 0 0 1 2173 477 L 2099 477  A 2 2 0 0 1 2097 475 L 2097 451  Z " fill-rule="nonzero" fill="#f0f7ff" stroke="none" />
    <path d="M 2096.5 451  A 2.5 2.5 0 0 1 2099 448.5 L 2173 448.5  A 2.5 2.5 0 0 1 2175.5 451 L 2175.5 475  A 2.5 2.5 0 0 1 2173 477.5 L 2099 477.5  A 2.5 2.5 0 0 1 2096.5 475 L 2096.5 451  Z " stroke-width="1" stroke="#7abbff" fill="none" stroke-opacity="0.996078431372549" />
  </g>
</svg>