<?xml version="1.0" encoding="utf-8"?>
<svg version="1.1" xmlns:xlink="http://www.w3.org/1999/xlink" width="12px" height="12px" viewBox="395 236.5  12 12" xmlns="http://www.w3.org/2000/svg">
  <path d="M 401 236.5  C 404.36 236.5  407 239.14  407 242.5  C 407 245.86  404.36 248.5  401 248.5  C 397.64 248.5  395 245.86  395 242.5  C 395 239.14  397.64 236.5  401 236.5  Z " fill-rule="nonzero" fill="#f0f0f0" stroke="none" />
  <path d="M 401 237  C 404.08 237  406.5 239.42  406.5 242.5  C 406.5 245.58  404.08 248  401 248  C 397.92 248  395.5 245.58  395.5 242.5  C 395.5 239.42  397.92 237  401 237  Z " stroke-width="1" stroke="#f2f2f2" fill="none" />
  <path d="M 401 245.5  C 399.32 245.5  398 244.18  398 242.5  C 398 240.82  399.32 239.5  401 239.5  C 402.68 239.5  404 240.82  404 242.5  C 404 244.18  402.68 245.5  401 245.5  " fill-rule="nonzero" fill="#f2f2f2" stroke="none" />
</svg>