<?xml version="1.0" encoding="utf-8"?>
<svg version="1.1" xmlns:xlink="http://www.w3.org/1999/xlink" width="12px" height="12px" viewBox="564 384  12 12" xmlns="http://www.w3.org/2000/svg">
  <path d="M 570 384  C 573.36 384  576 386.64  576 390  C 576 393.36  573.36 396  570 396  C 566.64 396  564 393.36  564 390  C 564 386.64  566.64 384  570 384  Z " fill-rule="nonzero" fill="#ffffff" stroke="none" />
  <path d="M 570 384.5  C 573.08 384.5  575.5 386.92  575.5 390  C 575.5 393.08  573.08 395.5  570 395.5  C 566.92 395.5  564.5 393.08  564.5 390  C 564.5 386.92  566.92 384.5  570 384.5  Z " stroke-width="1" stroke="#f2f2f2" fill="none" />
  <path d="M 570 393  C 568.32 393  567 391.68  567 390  C 567 388.32  568.32 387  570 387  C 571.68 387  573 388.32  573 390  C 573 391.68  571.68 393  570 393  " fill-rule="nonzero" fill="#f2f2f2" stroke="none" />
</svg>