<?xml version="1.0" encoding="utf-8"?>
<svg version="1.1" xmlns:xlink="http://www.w3.org/1999/xlink" width="12px" height="12px" viewBox="321 384  12 12" xmlns="http://www.w3.org/2000/svg">
  <path d="M 327 384  C 330.36 384  333 386.64  333 390  C 333 393.36  330.36 396  327 396  C 323.64 396  321 393.36  321 390  C 321 386.64  323.64 384  327 384  Z " fill-rule="nonzero" fill="#ffffff" stroke="none" />
  <path d="M 327 384.5  C 330.08 384.5  332.5 386.92  332.5 390  C 332.5 393.08  330.08 395.5  327 395.5  C 323.92 395.5  321.5 393.08  321.5 390  C 321.5 386.92  323.92 384.5  327 384.5  Z " stroke-width="1" stroke="#f2f2f2" fill="none" />
  <path d="M 327 393  C 325.32 393  324 391.68  324 390  C 324 388.32  325.32 387  327 387  C 328.68 387  330 388.32  330 390  C 330 391.68  328.68 393  327 393  " fill-rule="nonzero" fill="#f2f2f2" stroke="none" />
</svg>