<?xml version="1.0" encoding="utf-8"?>
<svg version="1.1" xmlns:xlink="http://www.w3.org/1999/xlink" width="12px" height="12px" viewBox="463 384  12 12" xmlns="http://www.w3.org/2000/svg">
  <path d="M 469 384  C 472.36 384  475 386.64  475 390  C 475 393.36  472.36 396  469 396  C 465.64 396  463 393.36  463 390  C 463 386.64  465.64 384  469 384  Z " fill-rule="nonzero" fill="#f0f0f0" stroke="none" />
  <path d="M 469 384.5  C 472.08 384.5  474.5 386.92  474.5 390  C 474.5 393.08  472.08 395.5  469 395.5  C 465.92 395.5  463.5 393.08  463.5 390  C 463.5 386.92  465.92 384.5  469 384.5  Z " stroke-width="1" stroke="#f2f2f2" fill="none" />
  <path d="M 469 393  C 467.32 393  466 391.68  466 390  C 466 388.32  467.32 387  469 387  C 470.68 387  472 388.32  472 390  C 472 391.68  470.68 393  469 393  " fill-rule="nonzero" fill="#f2f2f2" stroke="none" />
</svg>