<?xml version="1.0" encoding="utf-8"?>
<svg version="1.1" xmlns:xlink="http://www.w3.org/1999/xlink" width="12px" height="12px" viewBox="1642 1260.5  12 12" xmlns="http://www.w3.org/2000/svg">
  <path d="M 1648 1260.5  C 1651.36 1260.5  1654 1263.14  1654 1266.5  C 1654 1269.86  1651.36 1272.5  1648 1272.5  C 1644.64 1272.5  1642 1269.86  1642 1266.5  C 1642 1263.14  1644.64 1260.5  1648 1260.5  Z " fill-rule="nonzero" fill="#f0f0f0" stroke="none" />
  <path d="M 1648 1261  C 1651.08 1261  1653.5 1263.42  1653.5 1266.5  C 1653.5 1269.58  1651.08 1272  1648 1272  C 1644.92 1272  1642.5 1269.58  1642.5 1266.5  C 1642.5 1263.42  1644.92 1261  1648 1261  Z " stroke-width="1" stroke="#f2f2f2" fill="none" />
  <path d="M 1648 1269.5  C 1646.32 1269.5  1645 1268.18  1645 1266.5  C 1645 1264.82  1646.32 1263.5  1648 1263.5  C 1649.68 1263.5  1651 1264.82  1651 1266.5  C 1651 1268.18  1649.68 1269.5  1648 1269.5  " fill-rule="nonzero" fill="#f2f2f2" stroke="none" />
</svg>