<?xml version="1.0" encoding="utf-8"?>
<svg version="1.1" xmlns:xlink="http://www.w3.org/1999/xlink" width="12px" height="12px" viewBox="1642 1323.5  12 12" xmlns="http://www.w3.org/2000/svg">
  <path d="M 1648 1323.5  C 1651.36 1323.5  1654 1326.14  1654 1329.5  C 1654 1332.86  1651.36 1335.5  1648 1335.5  C 1644.64 1335.5  1642 1332.86  1642 1329.5  C 1642 1326.14  1644.64 1323.5  1648 1323.5  Z " fill-rule="nonzero" fill="#f0f0f0" stroke="none" />
  <path d="M 1648 1324  C 1651.08 1324  1653.5 1326.42  1653.5 1329.5  C 1653.5 1332.58  1651.08 1335  1648 1335  C 1644.92 1335  1642.5 1332.58  1642.5 1329.5  C 1642.5 1326.42  1644.92 1324  1648 1324  Z " stroke-width="1" stroke="#f2f2f2" fill="none" />
  <path d="M 1648 1332.5  C 1646.32 1332.5  1645 1331.18  1645 1329.5  C 1645 1327.82  1646.32 1326.5  1648 1326.5  C 1649.68 1326.5  1651 1327.82  1651 1329.5  C 1651 1331.18  1649.68 1332.5  1648 1332.5  " fill-rule="nonzero" fill="#f2f2f2" stroke="none" />
</svg>