<?xml version="1.0" encoding="utf-8"?>
<svg version="1.1" xmlns:xlink="http://www.w3.org/1999/xlink" width="12px" height="12px" viewBox="2132 1260.5  12 12" xmlns="http://www.w3.org/2000/svg">
  <path d="M 2138 1260.5  C 2141.36 1260.5  2144 1263.14  2144 1266.5  C 2144 1269.86  2141.36 1272.5  2138 1272.5  C 2134.64 1272.5  2132 1269.86  2132 1266.5  C 2132 1263.14  2134.64 1260.5  2138 1260.5  Z " fill-rule="nonzero" fill="#ffffff" stroke="none" />
  <path d="M 2138 1261  C 2141.08 1261  2143.5 1263.42  2143.5 1266.5  C 2143.5 1269.58  2141.08 1272  2138 1272  C 2134.92 1272  2132.5 1269.58  2132.5 1266.5  C 2132.5 1263.42  2134.92 1261  2138 1261  Z " stroke-width="1" stroke="#f2f2f2" fill="none" />
  <path d="M 2138 1269.5  C 2136.32 1269.5  2135 1268.18  2135 1266.5  C 2135 1264.82  2136.32 1263.5  2138 1263.5  C 2139.68 1263.5  2141 1264.82  2141 1266.5  C 2141 1268.18  2139.68 1269.5  2138 1269.5  " fill-rule="nonzero" fill="#f2f2f2" stroke="none" />
</svg>