<?xml version="1.0" encoding="utf-8"?>
<svg version="1.1" xmlns:xlink="http://www.w3.org/1999/xlink" width="12px" height="12px" viewBox="2132 1323.5  12 12" xmlns="http://www.w3.org/2000/svg">
  <path d="M 2138 1323.5  C 2141.36 1323.5  2144 1326.14  2144 1329.5  C 2144 1332.86  2141.36 1335.5  2138 1335.5  C 2134.64 1335.5  2132 1332.86  2132 1329.5  C 2132 1326.14  2134.64 1323.5  2138 1323.5  Z " fill-rule="nonzero" fill="#f0f0f0" stroke="none" />
  <path d="M 2138 1324  C 2141.08 1324  2143.5 1326.42  2143.5 1329.5  C 2143.5 1332.58  2141.08 1335  2138 1335  C 2134.92 1335  2132.5 1332.58  2132.5 1329.5  C 2132.5 1326.42  2134.92 1324  2138 1324  Z " stroke-width="1" stroke="#f2f2f2" fill="none" />
  <path d="M 2138 1332.5  C 2136.32 1332.5  2135 1331.18  2135 1329.5  C 2135 1327.82  2136.32 1326.5  2138 1326.5  C 2139.68 1326.5  2141 1327.82  2141 1329.5  C 2141 1331.18  2139.68 1332.5  2138 1332.5  " fill-rule="nonzero" fill="#f2f2f2" stroke="none" />
</svg>